<?xml version="1.0" encoding="UTF-8"?>
<svg id="uuid-adabd7ab-3144-4d58-aac0-715f56f2aa95" data-name="レイヤー 2" xmlns="http://www.w3.org/2000/svg" width="600" height="500" viewBox="0 0 600 500">
  <g id="uuid-79815805-66e1-4c32-b158-4a8bb3224ec7" data-name="デザイン">
    <path d="M64.386,149.314C108.049,98.321,108.028,37.315,178.406,13.552c50.273-16.975,114.718-25.445,182.538,20.657,79.679,54.164,133.503,29.681,178.186,79.185,73.701,81.652,1.727,91.16,20.885,141.149,23.707,61.858,32.807,34.861,39.511,93.766,6.033,53.012-46.681,101.669-90.411,115.791-57.431,18.547-67.582-5.898-137.369-.557-91.588,7.01-107.625,63.417-173.728,20.474-67.043-43.554-51.861-47.511-86.744-100.551-30.808-46.844-74.914-30.42-93.39-73.167-47.269-109.36,10.059-118.421,46.504-160.984Z" fill="#fff"/>
  </g>
</svg>